<svg height="512pt" viewBox="0 0 512 512" width="512pt" xmlns="http://www.w3.org/2000/svg"><path d="m489.335938 512h-467.195313v-346.140625h467.71875zm0 0" fill="#fdedd3"/><path d="m437.320312 165.859375-.523437 346.140625h52.539063l.523437-346.140625zm0 0" fill="#fae3be"/><path d="m20.671875 136.429688 71.34375-131.054688c1.804687-3.3125 5.273437-5.375 9.046875-5.375h309.007812c3.777344 0 7.257813 2.054688 9.082032 5.359375l72.3125 131.070313zm0 0" fill="#956465"/><path d="m410.070312 0h-45.382812l75.265625 136.429688h51.511719l-72.3125-131.070313c-1.824219-3.304687-5.304688-5.359375-9.082032-5.359375zm0 0" fill="#8a5c5d"/><path d="m22.140625 165.859375h233.859375v346.140625h-233.859375zm0 0" fill="#fedba8"/><path d="m512 139.648438v23.121093c0 1.707031-1.382812 3.089844-3.089844 3.089844h-505.820312c-1.707032 0-3.089844-1.382813-3.089844-3.089844v-23.121093c0-1.707032 1.382812-3.089844 3.089844-3.089844h505.820312c1.707032 0 3.089844 1.382812 3.089844 3.089844zm0 0" fill="#bd8b8c"/><path d="m466.671875 136.558594h45.328125v29.300781h-45.328125zm0 0" fill="#ae7374"/><path d="m304.644531 102.734375.6875-47.390625c0-13.339844 10.816407-24.152344 24.15625-24.152344 13.339844 0 24.15625 10.8125 24.15625 24.152344v47.390625" fill="#aec4e4"/><path d="m370.058594 110.460938h-81.832032c-4.269531 0-7.726562-3.460938-7.726562-7.726563s3.457031-7.726563 7.726562-7.726563h81.832032c4.269531 0 7.726562 3.460938 7.726562 7.726563s-3.457031 7.726563-7.726562 7.726563zm0 0" fill="#fecf89"/><path d="m153.207031 102.734375.691407-47.390625c0-13.339844 10.8125-24.152344 24.152343-24.152344 13.339844 0 24.15625 10.8125 24.15625 24.152344v47.390625" fill="#aec4e4"/><path d="m218.621094 110.460938h-81.832032c-4.269531 0-7.726562-3.460938-7.726562-7.726563s3.457031-7.726563 7.726562-7.726563h81.832032c4.269531 0 7.726562 3.460938 7.726562 7.726563s-3.457031 7.726563-7.726562 7.726563zm0 0" fill="#fecf89"/><path d="m160.191406 208.097656h48.421875v62.839844h-48.421875zm0 0" fill="#aec4e4"/><path d="m70.566406 208.097656h48.417969v62.839844h-48.417969zm0 0" fill="#aec4e4"/><path d="m160.191406 313.175781h48.421875v62.839844h-48.421875zm0 0" fill="#aec4e4"/><path d="m160.707031 418.253906h48.417969v93.746094h-48.417969zm0 0" fill="#956465"/><g fill="#aec4e4"><path d="m70.566406 313.175781h48.417969v62.839844h-48.417969zm0 0"/><path d="m393.015625 208.097656h48.417969v62.839844h-48.417969zm0 0"/><path d="m303.386719 208.097656h48.421875v62.839844h-48.421875zm0 0"/><path d="m393.015625 313.175781h48.417969v62.839844h-48.417969zm0 0"/><path d="m303.386719 313.175781h48.421875v62.839844h-48.421875zm0 0"/></g><path d="m303.386719 418.253906h48.421875v93.746094h-48.421875zm0 0" fill="#956465"/><path d="m115.378906 512h-105.078125c-5.6875 0-10.300781-4.613281-10.300781-10.300781v-32.390625c0-19.664063 15.941406-35.601563 35.601562-35.601563h44.175782c19.664062 0 35.601562 15.9375 35.601562 35.601563zm0 0" fill="#98c864"/><path d="m501.699219 512h-105.078125v-42.691406c0-19.664063 15.9375-35.601563 35.601562-35.601563h44.175782c19.660156 0 35.601562 15.9375 35.601562 35.601563v32.390625c0 5.6875-4.613281 10.300781-10.300781 10.300781zm0 0" fill="#98c864"/><path d="m476.398438 433.707031h-44.175782c-.195312 0-.382812.011719-.578125.011719 19.398438.3125 35.027344 16.121094 35.027344 35.589844v32.390625c0 5.6875-4.613281 10.300781-10.300781 10.300781h45.328125c5.6875 0 10.300781-4.613281 10.300781-10.300781v-32.390625c0-19.664063-15.941406-35.601563-35.601562-35.601563zm0 0" fill="#8ebc53"/></svg>