<svg id="Capa_1" enable-background="new 0 0 512 512" height="512" viewBox="0 0 512 512" width="512" xmlns="http://www.w3.org/2000/svg"><g id="C_1_"><g><path d="m263.968 512c-133.497 0-234.703-93.729-234.703-251.884 0-164.165 97.965-260.116 240.623-260.116 186.563 0 207.912 156.771 211.965 162.875l-126.424 29.077c-3.96-16.682-13.887-80.846-90.475-80.846-79.317 0-105.375 62.434-105.375 142.045 0 80.765 22.922 147.744 103.402 147.744 84.735 0 92.308-94.667 96.007-102.475l123.747 37.772c-5.495 9.296-26.463 175.808-218.767 175.808zm5.92-482c-129.917 0-210.623 88.175-210.623 230.116 0 134.79 80.351 221.884 204.703 221.884 93.165 0 152.67-41.198 181.483-125.822l-65.204-19.903c-18.24 58.378-57.33 94.62-117.266 94.62-98.589 0-133.402-79.041-133.402-177.744 0-123.75 59.642-172.045 135.375-172.045 53.351 0 95.044 28.404 111.963 75.121l66.589-15.315c-34.101-91.187-112.359-110.912-173.618-110.912z"/></g></g></svg>